<svg width="459" height="127" viewBox="0 0 459 127" fill="none" xmlns="http://www.w3.org/2000/svg">
<rect width="459" height="127" rx="20" fill="#F8F9FB"/>
<path d="M33.24 46H30.8V40.02H24.4V46H21.94V32H24.4V37.72H30.8V32H33.24V46ZM37.1558 39.32L36.5758 37.64C37.5491 37.0667 38.6091 36.78 39.7558 36.78C41.0091 36.78 41.9224 37.0867 42.4958 37.7C43.0691 38.3133 43.3558 39.2533 43.3558 40.52V46H41.3558V44.96C40.8224 45.7333 39.9358 46.12 38.6958 46.12C37.8424 46.12 37.1558 45.8733 36.6358 45.38C36.1291 44.8733 35.8758 44.2 35.8758 43.36C35.8758 42.4267 36.1758 41.7067 36.7758 41.2C37.3758 40.6933 38.1691 40.44 39.1558 40.44C39.9691 40.44 40.6491 40.6333 41.1958 41.02C41.2224 40.22 41.1024 39.6333 40.8358 39.26C40.5824 38.8867 40.1424 38.7 39.5158 38.7C38.8224 38.7 38.0358 38.9067 37.1558 39.32ZM39.4558 44.18C40.2291 44.18 40.8091 43.9067 41.1958 43.36V42.44C40.8224 42.1467 40.2958 42 39.6158 42C39.1891 42 38.8424 42.1 38.5758 42.3C38.3091 42.5 38.1758 42.7733 38.1758 43.12C38.1758 43.44 38.2958 43.7 38.5358 43.9C38.7758 44.0867 39.0824 44.18 39.4558 44.18ZM54.1536 46H51.8536V39.16H48.0136V46H45.7136V37H54.1536V46ZM63.2097 40.3L59.0097 46H56.7097V37H59.0097V42.7L63.2097 37H65.5097V46H63.2097V40.3ZM80.0769 46H68.0769V37H70.3769V43.86H72.9169V37H75.2169V43.86H77.7769V37H80.0769V46ZM89.1277 40.3L84.9277 46H82.6277V37H84.9277V42.7L89.1277 37H91.4277V46H89.1277V40.3ZM96.0148 39.3H93.0548V37H101.255V39.3H98.3148V46H96.0148V39.3ZM109.688 43.48L110.348 45.1C109.454 45.8467 108.308 46.22 106.908 46.22C105.468 46.22 104.294 45.7867 103.388 44.92C102.508 44.0667 102.068 42.9267 102.068 41.5C102.068 40.1667 102.501 39.0467 103.368 38.14C104.234 37.2333 105.388 36.78 106.828 36.78C108.014 36.78 109.021 37.1733 109.848 37.96C110.674 38.7467 111.088 39.7467 111.088 40.96C111.088 41.4933 111.041 41.9067 110.948 42.2H104.448C104.541 42.8533 104.828 43.3667 105.308 43.74C105.801 44.1133 106.414 44.3 107.148 44.3C108.148 44.3 108.994 44.0267 109.688 43.48ZM106.728 38.7C105.421 38.7 104.634 39.3533 104.368 40.66H108.788C108.801 40.0867 108.614 39.62 108.228 39.26C107.854 38.8867 107.354 38.7 106.728 38.7ZM125.718 46H123.418V42.56H119.478V46H117.178V37H119.478V40.4H123.418V37H125.718V46ZM128.972 39.32L128.392 37.64C129.366 37.0667 130.426 36.78 131.572 36.78C132.826 36.78 133.739 37.0867 134.312 37.7C134.886 38.3133 135.172 39.2533 135.172 40.52V46H133.172V44.96C132.639 45.7333 131.752 46.12 130.512 46.12C129.659 46.12 128.972 45.8733 128.452 45.38C127.946 44.8733 127.692 44.2 127.692 43.36C127.692 42.4267 127.992 41.7067 128.592 41.2C129.192 40.6933 129.986 40.44 130.972 40.44C131.786 40.44 132.466 40.6333 133.012 41.02C133.039 40.22 132.919 39.6333 132.652 39.26C132.399 38.8867 131.959 38.7 131.332 38.7C130.639 38.7 129.852 38.9067 128.972 39.32ZM131.272 44.18C132.046 44.18 132.626 43.9067 133.012 43.36V42.44C132.639 42.1467 132.112 42 131.432 42C131.006 42 130.659 42.1 130.392 42.3C130.126 42.5 129.992 42.7733 129.992 43.12C129.992 43.44 130.112 43.7 130.352 43.9C130.592 44.0867 130.899 44.18 131.272 44.18ZM139.83 46H137.53V37H139.61L142.67 40.76L145.57 37H147.59V46H145.29V40.5L142.63 43.86H142.57L139.83 40.5V46ZM154.385 46V37C154.505 37 155.012 36.9867 155.905 36.96C156.812 36.92 157.485 36.9 157.925 36.9C160.645 36.9 162.005 37.6867 162.005 39.26C162.005 39.7667 161.845 40.2133 161.525 40.6C161.205 40.9733 160.805 41.1933 160.325 41.26V41.3C161.605 41.6067 162.245 42.3 162.245 43.38C162.245 45.1933 160.819 46.1 157.965 46.1C157.552 46.1 156.919 46.08 156.065 46.04C155.852 46.04 155.605 46.0333 155.325 46.02C155.059 46.02 154.852 46.0133 154.705 46C154.572 46 154.465 46 154.385 46ZM158.125 42.18H156.685V44.18C157.485 44.2333 157.992 44.26 158.205 44.26C158.712 44.26 159.105 44.1667 159.385 43.98C159.679 43.7933 159.825 43.54 159.825 43.22C159.825 42.5267 159.259 42.18 158.125 42.18ZM158.125 38.76C157.592 38.76 157.112 38.7733 156.685 38.8V40.78H158.185C158.599 40.78 158.932 40.6867 159.185 40.5C159.439 40.3133 159.565 40.06 159.565 39.74C159.565 39.0867 159.085 38.76 158.125 38.76Z" fill="#010F32"/>
<path d="M169.323 45.98V32.04C170.763 31.9733 172.109 31.94 173.363 31.94C174.909 31.94 176.063 32.2467 176.823 32.86C177.583 33.4733 177.963 34.32 177.963 35.4C177.963 36.9067 177.296 37.9667 175.963 38.58V38.62C176.723 38.82 177.323 39.2 177.763 39.76C178.203 40.3067 178.423 41.0133 178.423 41.88C178.423 43.24 177.956 44.28 177.023 45C176.089 45.72 174.823 46.08 173.223 46.08C171.623 46.08 170.323 46.0467 169.323 45.98ZM173.523 39.98H171.783V43.68C172.409 43.7467 172.949 43.78 173.403 43.78C175.109 43.78 175.963 43.1067 175.963 41.76C175.963 41.1733 175.749 40.7333 175.323 40.44C174.896 40.1333 174.296 39.98 173.523 39.98ZM173.323 34.24C172.736 34.24 172.223 34.26 171.783 34.3V37.84H173.443C174.069 37.84 174.569 37.68 174.943 37.36C175.329 37.04 175.523 36.58 175.523 35.98C175.523 35.42 175.329 34.9933 174.943 34.7C174.556 34.3933 174.016 34.24 173.323 34.24ZM181.707 39.32L181.127 37.64C182.1 37.0667 183.16 36.78 184.307 36.78C185.56 36.78 186.473 37.0867 187.047 37.7C187.62 38.3133 187.907 39.2533 187.907 40.52V46H185.907V44.96C185.373 45.7333 184.487 46.12 183.247 46.12C182.393 46.12 181.707 45.8733 181.187 45.38C180.68 44.8733 180.427 44.2 180.427 43.36C180.427 42.4267 180.727 41.7067 181.327 41.2C181.927 40.6933 182.72 40.44 183.707 40.44C184.52 40.44 185.2 40.6333 185.747 41.02C185.773 40.22 185.653 39.6333 185.387 39.26C185.133 38.8867 184.693 38.7 184.067 38.7C183.373 38.7 182.587 38.9067 181.707 39.32ZM184.007 44.18C184.78 44.18 185.36 43.9067 185.747 43.36V42.44C185.373 42.1467 184.847 42 184.167 42C183.74 42 183.393 42.1 183.127 42.3C182.86 42.5 182.727 42.7733 182.727 43.12C182.727 43.44 182.847 43.7 183.087 43.9C183.327 44.0867 183.633 44.18 184.007 44.18ZM196.764 40.3L192.564 46H190.264V37H192.564V42.7L196.764 37H199.064V46H196.764V40.3ZM191.604 32.5H193.704C193.704 32.94 193.791 33.2933 193.964 33.56C194.138 33.8267 194.398 33.96 194.744 33.96C195.051 33.96 195.284 33.8267 195.444 33.56C195.618 33.28 195.704 32.9267 195.704 32.5H197.804C197.804 33.4333 197.531 34.1867 196.984 34.76C196.438 35.32 195.691 35.6 194.744 35.6C193.704 35.6 192.918 35.3267 192.384 34.78C191.864 34.22 191.604 33.46 191.604 32.5ZM208.392 31.78L209.592 33.66C209.272 34.06 208.872 34.3533 208.392 34.54C207.965 34.6867 207.432 34.8333 206.792 34.98C206.165 35.1 205.645 35.2667 205.232 35.48C204.125 36 203.478 37.12 203.292 38.84H203.332C203.612 38.3467 204.045 37.9467 204.632 37.64C205.218 37.32 205.838 37.16 206.492 37.16C207.732 37.16 208.725 37.56 209.472 38.36C210.218 39.1733 210.592 40.2467 210.592 41.58C210.592 42.8733 210.152 43.9733 209.272 44.88C208.392 45.7733 207.258 46.22 205.872 46.22C204.365 46.22 203.172 45.7067 202.292 44.68C201.425 43.6533 200.992 42.2667 200.992 40.52C200.992 36.68 202.125 34.2667 204.392 33.28C204.885 33.0667 205.432 32.9067 206.032 32.8C206.712 32.6667 207.212 32.54 207.532 32.42C207.852 32.2867 208.138 32.0733 208.392 31.78ZM203.452 41C203.465 41.9067 203.685 42.6467 204.112 43.22C204.538 43.7933 205.105 44.08 205.812 44.08C206.505 44.08 207.065 43.8533 207.492 43.4C207.918 42.9467 208.132 42.3733 208.132 41.68C208.132 40.9733 207.932 40.4 207.532 39.96C207.145 39.52 206.605 39.3 205.912 39.3C205.312 39.3 204.792 39.46 204.352 39.78C203.912 40.0867 203.612 40.4933 203.452 41ZM219.649 43.48L220.309 45.1C219.415 45.8467 218.269 46.22 216.869 46.22C215.429 46.22 214.255 45.7867 213.349 44.92C212.469 44.0667 212.029 42.9267 212.029 41.5C212.029 40.1667 212.462 39.0467 213.329 38.14C214.195 37.2333 215.349 36.78 216.789 36.78C217.975 36.78 218.982 37.1733 219.809 37.96C220.635 38.7467 221.049 39.7467 221.049 40.96C221.049 41.4933 221.002 41.9067 220.909 42.2H214.409C214.502 42.8533 214.789 43.3667 215.269 43.74C215.762 44.1133 216.375 44.3 217.109 44.3C218.109 44.3 218.955 44.0267 219.649 43.48ZM216.689 38.7C215.382 38.7 214.595 39.3533 214.329 40.66H218.749C218.762 40.0867 218.575 39.62 218.189 39.26C217.815 38.8867 217.315 38.7 216.689 38.7ZM225.201 50H222.901V37H225.201V37.86C225.494 37.54 225.894 37.28 226.401 37.08C226.908 36.88 227.434 36.78 227.981 36.78C229.221 36.78 230.208 37.2067 230.941 38.06C231.688 38.9267 232.061 40.0267 232.061 41.36C232.061 42.76 231.621 43.92 230.741 44.84C229.861 45.76 228.714 46.22 227.301 46.22C226.394 46.22 225.694 46.0733 225.201 45.78V50ZM227.261 38.94C226.461 38.94 225.774 39.2667 225.201 39.92V43.56C225.748 43.9067 226.381 44.08 227.101 44.08C227.861 44.08 228.468 43.8333 228.921 43.34C229.388 42.8467 229.621 42.2067 229.621 41.42C229.621 40.6733 229.408 40.0733 228.981 39.62C228.568 39.1667 227.994 38.94 227.261 38.94Z" fill="#3A62FF"/>
<path d="M27.78 88.3L23.58 94H21.28V85H23.58V90.7L27.78 85H30.08V94H27.78V88.3ZM40.8672 94H38.5672V87.3H36.1872L36.1272 88.26C35.9539 89.8867 35.7005 91.1267 35.3672 91.98C35.0472 92.8333 34.6339 93.4133 34.1272 93.72C33.6339 94.0133 32.9472 94.1667 32.0672 94.18L31.8672 91.94C32.1605 91.9533 32.4339 91.8733 32.6872 91.7C32.9805 91.4867 33.2405 91.04 33.4672 90.36C33.6939 89.68 33.8405 88.8267 33.9072 87.8L34.0472 85H40.8672V94ZM49.9284 88.3L45.7284 94H43.4284V85H45.7284V90.7L49.9284 85H52.2284V94H49.9284V88.3ZM227.75 94H225.45V90.56H221.51V94H219.21V85H221.51V88.4H225.45V85H227.75V94ZM231.003 87.32L230.423 85.64C231.397 85.0667 232.457 84.78 233.603 84.78C234.857 84.78 235.77 85.0867 236.343 85.7C236.917 86.3133 237.203 87.2533 237.203 88.52V94H235.203V92.96C234.67 93.7333 233.783 94.12 232.543 94.12C231.69 94.12 231.003 93.8733 230.483 93.38C229.977 92.8733 229.723 92.2 229.723 91.36C229.723 90.4267 230.023 89.7067 230.623 89.2C231.223 88.6933 232.017 88.44 233.003 88.44C233.817 88.44 234.497 88.6333 235.043 89.02C235.07 88.22 234.95 87.6333 234.683 87.26C234.43 86.8867 233.99 86.7 233.363 86.7C232.67 86.7 231.883 86.9067 231.003 87.32ZM233.303 92.18C234.077 92.18 234.657 91.9067 235.043 91.36V90.44C234.67 90.1467 234.143 90 233.463 90C233.037 90 232.69 90.1 232.423 90.3C232.157 90.5 232.023 90.7733 232.023 91.12C232.023 91.44 232.143 91.7 232.383 91.9C232.623 92.0867 232.93 92.18 233.303 92.18ZM250.62 90.98L251.7 92.66C250.94 93.7 249.746 94.22 248.12 94.22C246.666 94.22 245.486 93.7867 244.58 92.92C243.686 92.0667 243.24 90.9267 243.24 89.5C243.24 88.1533 243.68 87.0333 244.56 86.14C245.44 85.2333 246.553 84.78 247.9 84.78C249.5 84.78 250.706 85.1867 251.52 86L250.44 87.82C249.826 87.2333 249.08 86.94 248.2 86.94C247.533 86.94 246.946 87.18 246.44 87.66C245.946 88.1133 245.7 88.7267 245.7 89.5C245.7 90.2733 245.953 90.9 246.46 91.38C246.993 91.8467 247.606 92.08 248.3 92.08C249.193 92.08 249.966 91.7133 250.62 90.98ZM254.246 87.32L253.666 85.64C254.639 85.0667 255.699 84.78 256.846 84.78C258.099 84.78 259.012 85.0867 259.586 85.7C260.159 86.3133 260.446 87.2533 260.446 88.52V94H258.446V92.96C257.912 93.7333 257.026 94.12 255.786 94.12C254.932 94.12 254.246 93.8733 253.726 93.38C253.219 92.8733 252.966 92.2 252.966 91.36C252.966 90.4267 253.266 89.7067 253.866 89.2C254.466 88.6933 255.259 88.44 256.246 88.44C257.059 88.44 257.739 88.6333 258.286 89.02C258.312 88.22 258.192 87.6333 257.926 87.26C257.672 86.8867 257.232 86.7 256.606 86.7C255.912 86.7 255.126 86.9067 254.246 87.32ZM256.546 92.18C257.319 92.18 257.899 91.9067 258.286 91.36V90.44C257.912 90.1467 257.386 90 256.706 90C256.279 90 255.932 90.1 255.666 90.3C255.399 90.5 255.266 90.7733 255.266 91.12C255.266 91.44 255.386 91.7 255.626 91.9C255.866 92.0867 256.172 92.18 256.546 92.18ZM269.303 88.3L265.103 94H262.803V85H265.103V90.7L269.303 85H271.603V94H269.303V88.3ZM264.143 80.5H266.243C266.243 80.94 266.33 81.2933 266.503 81.56C266.677 81.8267 266.937 81.96 267.283 81.96C267.59 81.96 267.823 81.8267 267.983 81.56C268.157 81.28 268.243 80.9267 268.243 80.5H270.343C270.343 81.4333 270.07 82.1867 269.523 82.76C268.977 83.32 268.23 83.6 267.283 83.6C266.243 83.6 265.457 83.3267 264.923 82.78C264.403 82.22 264.143 81.46 264.143 80.5ZM276.191 87.3H273.231V85H281.431V87.3H278.491V94H276.191V87.3ZM289.863 91.48L290.523 93.1C289.63 93.8467 288.483 94.22 287.083 94.22C285.643 94.22 284.47 93.7867 283.563 92.92C282.683 92.0667 282.243 90.9267 282.243 89.5C282.243 88.1667 282.677 87.0467 283.543 86.14C284.41 85.2333 285.563 84.78 287.003 84.78C288.19 84.78 289.197 85.1733 290.023 85.96C290.85 86.7467 291.263 87.7467 291.263 88.96C291.263 89.4933 291.217 89.9067 291.123 90.2H284.623C284.717 90.8533 285.003 91.3667 285.483 91.74C285.977 92.1133 286.59 92.3 287.323 92.3C288.323 92.3 289.17 92.0267 289.863 91.48ZM286.903 86.7C285.597 86.7 284.81 87.3533 284.543 88.66H288.963C288.977 88.0867 288.79 87.62 288.403 87.26C288.03 86.8867 287.53 86.7 286.903 86.7Z" fill="#010F32"/>
<path d="M62.2139 94.22C61.4272 94.22 60.6606 94.08 59.9139 93.8C59.1672 93.5067 58.6272 93.1467 58.2939 92.72L59.4739 91.28C59.7406 91.5867 60.1206 91.8467 60.6139 92.06C61.1072 92.2733 61.5739 92.38 62.0139 92.38C62.6006 92.38 63.0539 92.28 63.3739 92.08C63.6939 91.88 63.8539 91.6133 63.8539 91.28C63.8539 90.9733 63.7339 90.7267 63.4939 90.54C63.2539 90.3533 62.9206 90.26 62.4939 90.26H60.8139V88.72H62.3939C62.7539 88.72 63.0406 88.62 63.2539 88.42C63.4806 88.2067 63.5939 87.94 63.5939 87.62C63.5939 86.9667 63.0672 86.64 62.0139 86.64C61.1872 86.64 60.3672 86.9867 59.5539 87.68L58.5939 86.3C59.4472 85.2867 60.7339 84.78 62.4539 84.78C63.6139 84.78 64.5006 85.0067 65.1139 85.46C65.7406 85.9 66.0539 86.5267 66.0539 87.34C66.0539 87.78 65.9072 88.18 65.6139 88.54C65.3206 88.9 64.9139 89.1667 64.3939 89.34V89.38C64.9939 89.5 65.4606 89.7533 65.7939 90.14C66.1272 90.5133 66.2939 90.9667 66.2939 91.5C66.2939 92.34 65.9206 93.0067 65.1739 93.5C64.4406 93.98 63.4539 94.22 62.2139 94.22ZM69.1675 87.32L68.5875 85.64C69.5608 85.0667 70.6208 84.78 71.7675 84.78C73.0208 84.78 73.9342 85.0867 74.5075 85.7C75.0808 86.3133 75.3675 87.2533 75.3675 88.52V94H73.3675V92.96C72.8342 93.7333 71.9475 94.12 70.7075 94.12C69.8542 94.12 69.1675 93.8733 68.6475 93.38C68.1408 92.8733 67.8875 92.2 67.8875 91.36C67.8875 90.4267 68.1875 89.7067 68.7875 89.2C69.3875 88.6933 70.1808 88.44 71.1675 88.44C71.9808 88.44 72.6608 88.6333 73.2075 89.02C73.2342 88.22 73.1142 87.6333 72.8475 87.26C72.5942 86.8867 72.1542 86.7 71.5275 86.7C70.8342 86.7 70.0475 86.9067 69.1675 87.32ZM71.4675 92.18C72.2408 92.18 72.8208 91.9067 73.2075 91.36V90.44C72.8342 90.1467 72.3075 90 71.6275 90C71.2008 90 70.8542 90.1 70.5875 90.3C70.3208 90.5 70.1875 90.7733 70.1875 91.12C70.1875 91.44 70.3075 91.7 70.5475 91.9C70.7875 92.0867 71.0942 92.18 71.4675 92.18ZM86.1653 94H83.8653V87.16H80.0253V94H77.7253V85H86.1653V94ZM89.5014 92.9C88.6081 92.0067 88.1614 90.8733 88.1614 89.5C88.1614 88.1267 88.6081 87 89.5014 86.12C90.3947 85.2267 91.5814 84.78 93.0614 84.78C94.5281 84.78 95.7081 85.2267 96.6014 86.12C97.5081 87 97.9614 88.1267 97.9614 89.5C97.9614 90.86 97.5081 91.9933 96.6014 92.9C95.6947 93.78 94.5147 94.22 93.0614 94.22C91.5814 94.22 90.3947 93.78 89.5014 92.9ZM91.3214 87.66C90.8547 88.14 90.6214 88.7533 90.6214 89.5C90.6214 90.2467 90.8481 90.8667 91.3014 91.36C91.7681 91.84 92.3547 92.08 93.0614 92.08C93.7814 92.08 94.3681 91.84 94.8214 91.36C95.2881 90.88 95.5214 90.26 95.5214 89.5C95.5214 88.7533 95.2881 88.14 94.8214 87.66C94.3547 87.18 93.7681 86.94 93.0614 86.94C92.3681 86.94 91.7881 87.18 91.3214 87.66ZM107.879 94H105.579V87.3H103.199L103.139 88.26C102.966 89.8867 102.712 91.1267 102.379 91.98C102.059 92.8333 101.646 93.4133 101.139 93.72C100.646 94.0133 99.9589 94.1667 99.0789 94.18L98.8789 91.94C99.1722 91.9533 99.4456 91.8733 99.6989 91.7C99.9922 91.4867 100.252 91.04 100.479 90.36C100.706 89.68 100.852 88.8267 100.919 87.8L101.059 85H107.879V94ZM118.98 94H116.68V90.56H112.74V94H110.44V85H112.74V88.4H116.68V85H118.98V94ZM128.034 88.3L123.834 94H121.534V85H123.834V90.7L128.034 85H130.334V94H128.034V88.3ZM134.921 87.3H131.961V85H140.161V87.3H137.221V94H134.921V87.3ZM148.594 91.48L149.254 93.1C148.361 93.8467 147.214 94.22 145.814 94.22C144.374 94.22 143.201 93.7867 142.294 92.92C141.414 92.0667 140.974 90.9267 140.974 89.5C140.974 88.1667 141.407 87.0467 142.274 86.14C143.141 85.2333 144.294 84.78 145.734 84.78C146.921 84.78 147.927 85.1733 148.754 85.96C149.581 86.7467 149.994 87.7467 149.994 88.96C149.994 89.4933 149.947 89.9067 149.854 90.2H143.354C143.447 90.8533 143.734 91.3667 144.214 91.74C144.707 92.1133 145.321 92.3 146.054 92.3C147.054 92.3 147.901 92.0267 148.594 91.48ZM145.634 86.7C144.327 86.7 143.541 87.3533 143.274 88.66H147.694C147.707 88.0867 147.521 87.62 147.134 87.26C146.761 86.8867 146.261 86.7 145.634 86.7ZM159.265 94.22C158.478 94.22 157.711 94.08 156.965 93.8C156.218 93.5067 155.678 93.1467 155.345 92.72L156.525 91.28C156.791 91.5867 157.171 91.8467 157.665 92.06C158.158 92.2733 158.625 92.38 159.065 92.38C159.651 92.38 160.105 92.28 160.425 92.08C160.745 91.88 160.905 91.6133 160.905 91.28C160.905 90.9733 160.785 90.7267 160.545 90.54C160.305 90.3533 159.971 90.26 159.545 90.26H157.865V88.72H159.445C159.805 88.72 160.091 88.62 160.305 88.42C160.531 88.2067 160.645 87.94 160.645 87.62C160.645 86.9667 160.118 86.64 159.065 86.64C158.238 86.64 157.418 86.9867 156.605 87.68L155.645 86.3C156.498 85.2867 157.785 84.78 159.505 84.78C160.665 84.78 161.551 85.0067 162.165 85.46C162.791 85.9 163.105 86.5267 163.105 87.34C163.105 87.78 162.958 88.18 162.665 88.54C162.371 88.9 161.965 89.1667 161.445 89.34V89.38C162.045 89.5 162.511 89.7533 162.845 90.14C163.178 90.5133 163.345 90.9667 163.345 91.5C163.345 92.34 162.971 93.0067 162.225 93.5C161.491 93.98 160.505 94.22 159.265 94.22ZM166.218 87.32L165.638 85.64C166.612 85.0667 167.672 84.78 168.818 84.78C170.072 84.78 170.985 85.0867 171.558 85.7C172.132 86.3133 172.418 87.2533 172.418 88.52V94H170.418V92.96C169.885 93.7333 168.998 94.12 167.758 94.12C166.905 94.12 166.218 93.8733 165.698 93.38C165.192 92.8733 164.938 92.2 164.938 91.36C164.938 90.4267 165.238 89.7067 165.838 89.2C166.438 88.6933 167.232 88.44 168.218 88.44C169.032 88.44 169.712 88.6333 170.258 89.02C170.285 88.22 170.165 87.6333 169.898 87.26C169.645 86.8867 169.205 86.7 168.578 86.7C167.885 86.7 167.098 86.9067 166.218 87.32ZM168.518 92.18C169.292 92.18 169.872 91.9067 170.258 91.36V90.44C169.885 90.1467 169.358 90 168.678 90C168.252 90 167.905 90.1 167.638 90.3C167.372 90.5 167.238 90.7733 167.238 91.12C167.238 91.44 167.358 91.7 167.598 91.9C167.838 92.0867 168.145 92.18 168.518 92.18ZM179.176 85H182.116V94H179.816V91.3H178.536L176.676 94H174.036L176.436 90.8C175.943 90.6267 175.529 90.3133 175.196 89.86C174.863 89.3933 174.696 88.84 174.696 88.2C174.696 87.2133 175.069 86.4333 175.816 85.86C176.576 85.2867 177.696 85 179.176 85ZM177.156 88.36C177.156 88.7067 177.303 89 177.596 89.24C177.889 89.48 178.229 89.6 178.616 89.6H179.816V87H178.796C178.289 87 177.889 87.1333 177.596 87.4C177.303 87.6533 177.156 87.9733 177.156 88.36ZM184.678 94V85C184.798 85 185.305 84.9867 186.198 84.96C187.105 84.92 187.778 84.9 188.218 84.9C190.938 84.9 192.298 85.6867 192.298 87.26C192.298 87.7667 192.138 88.2133 191.818 88.6C191.498 88.9733 191.098 89.1933 190.618 89.26V89.3C191.898 89.6067 192.538 90.3 192.538 91.38C192.538 93.1933 191.112 94.1 188.258 94.1C187.845 94.1 187.212 94.08 186.358 94.04C186.145 94.04 185.898 94.0333 185.618 94.02C185.352 94.02 185.145 94.0133 184.998 94C184.865 94 184.758 94 184.678 94ZM188.418 90.18H186.978V92.18C187.778 92.2333 188.285 92.26 188.498 92.26C189.005 92.26 189.398 92.1667 189.678 91.98C189.972 91.7933 190.118 91.54 190.118 91.22C190.118 90.5267 189.552 90.18 188.418 90.18ZM188.418 86.76C187.885 86.76 187.405 86.7733 186.978 86.8V88.78H188.478C188.892 88.78 189.225 88.6867 189.478 88.5C189.732 88.3133 189.858 88.06 189.858 87.74C189.858 87.0867 189.378 86.76 188.418 86.76ZM200.338 85H203.238L199.778 89.28L203.658 94H200.658L197.098 89.46L200.338 85ZM197.018 94H194.718V85H197.018V94ZM210.973 85H213.593L210.053 94C209.413 95.56 208.839 96.6133 208.333 97.16C207.839 97.72 207.253 98 206.573 98C205.933 98 205.286 97.7667 204.633 97.3L205.373 95.56C205.719 95.7733 206.033 95.88 206.313 95.88C206.859 95.88 207.319 95.4133 207.693 94.48L207.893 94L203.733 85H206.493L208.593 89.92C208.619 89.9867 208.766 90.42 209.033 91.22C209.113 90.7267 209.219 90.2867 209.353 89.9L210.973 85Z" fill="#3A62FF"/>
<rect x="306" y="22" width="133" height="35" rx="17.5" fill="url(#paint0_linear_2_9157)"/>
<rect x="306" y="70" width="133" height="35" rx="17.5" fill="#3A62FF"/>
<path d="M376.56 33.8H378.528L374.048 45.032H372.56L367.952 33.8H370.048L373.376 42.104L376.56 33.8ZM381.995 45H380.155V37.8H381.995V45ZM379.963 35.208C379.963 34.888 380.07 34.632 380.283 34.44C380.507 34.2373 380.785 34.136 381.115 34.136C381.403 34.136 381.649 34.2373 381.851 34.44C382.065 34.6427 382.171 34.8987 382.171 35.208C382.171 35.5493 382.065 35.8267 381.851 36.04C381.649 36.2533 381.403 36.36 381.115 36.36C380.785 36.36 380.507 36.2533 380.283 36.04C380.07 35.8267 379.963 35.5493 379.963 35.208ZM384.321 44.376V33.8H386.161V38.248C386.684 37.832 387.318 37.624 388.065 37.624C389.121 37.624 389.953 37.9653 390.561 38.648C391.18 39.3093 391.489 40.1893 391.489 41.288C391.489 42.472 391.116 43.416 390.369 44.12C389.633 44.824 388.636 45.176 387.377 45.176C386.822 45.176 386.262 45.1013 385.697 44.952C385.142 44.8027 384.684 44.6107 384.321 44.376ZM387.633 39.352C387.046 39.352 386.556 39.5813 386.161 40.04V43.096C386.556 43.3413 386.993 43.464 387.473 43.464C388.081 43.464 388.572 43.2827 388.945 42.92C389.329 42.5467 389.521 42.0453 389.521 41.416C389.521 40.7653 389.345 40.2587 388.993 39.896C388.641 39.5333 388.188 39.352 387.633 39.352ZM398.735 42.984L399.263 44.28C398.548 44.8773 397.631 45.176 396.511 45.176C395.359 45.176 394.42 44.8293 393.695 44.136C392.991 43.4533 392.639 42.5413 392.639 41.4C392.639 40.3333 392.985 39.4373 393.679 38.712C394.372 37.9867 395.295 37.624 396.447 37.624C397.396 37.624 398.201 37.9387 398.863 38.568C399.524 39.1973 399.855 39.9973 399.855 40.968C399.855 41.3947 399.817 41.7253 399.743 41.96H394.543C394.617 42.4827 394.847 42.8933 395.231 43.192C395.625 43.4907 396.116 43.64 396.703 43.64C397.503 43.64 398.18 43.4213 398.735 42.984ZM396.367 39.16C395.321 39.16 394.692 39.6827 394.479 40.728H398.015C398.025 40.2693 397.876 39.896 397.567 39.608C397.268 39.3093 396.868 39.16 396.367 39.16ZM403.177 45H401.337V37.8H403.177V38.504C403.571 37.9493 404.121 37.672 404.825 37.672C405.326 37.672 405.699 37.7627 405.945 37.944L405.289 39.672C404.979 39.4907 404.67 39.4 404.361 39.4C403.827 39.4 403.433 39.656 403.177 40.168V45Z" fill="white"/>
<path d="M359.266 30.3406C358.666 29.7895 356.248 28.0388 350.859 28.0172C350.859 28.0172 344.505 27.6354 341.407 30.4667C339.683 32.185 339.08 34.6993 339.014 37.8152C338.949 40.931 338.866 46.7774 344.519 48.3587H344.526L344.523 50.7758C344.523 50.7758 344.487 51.7556 345.134 51.9537C345.914 52.1951 346.373 51.453 347.122 50.6497C347.53 50.2103 348.098 49.5619 348.524 49.0684C352.388 49.3926 355.363 48.6505 355.699 48.5424C356.479 48.2903 360.896 47.7247 361.612 41.8856C362.353 35.8664 361.25 32.0589 359.266 30.3406ZM359.92 41.4534C359.313 46.3343 355.731 46.6405 355.07 46.853C354.788 46.9431 352.178 47.5915 348.896 47.3753C348.896 47.3753 346.449 50.3183 345.687 51.082C345.567 51.2008 345.426 51.2477 345.332 51.2261C345.202 51.1936 345.166 51.0388 345.166 50.8118C345.17 50.4876 345.188 46.7954 345.188 46.7954C340.406 45.4734 340.688 40.4988 340.742 37.8944C340.796 35.29 341.288 33.1575 342.745 31.7239C345.365 29.3608 350.761 29.7139 350.761 29.7139C355.319 29.7319 357.502 31.0971 358.008 31.5582C359.689 32.9918 360.546 36.4247 359.92 41.4534Z" fill="white"/>
<path d="M351.271 35.5026C351.101 35.4918 350.96 35.6215 350.95 35.7908C350.942 35.9565 351.069 36.1005 351.239 36.1114C352.233 36.1618 352.721 36.6661 352.771 37.6999C352.778 37.862 352.912 37.9881 353.075 37.9881C353.078 37.9881 353.086 37.9881 353.089 37.9881C353.256 37.9809 353.386 37.8368 353.378 37.6711C353.313 36.3167 352.587 35.571 351.271 35.5026Z" fill="white"/>
<path d="M354.635 38.5061C354.638 38.5061 354.638 38.5061 354.642 38.5061C354.808 38.5061 354.942 38.3728 354.946 38.2107C354.971 37.0256 354.613 36.0206 353.876 35.2173C353.142 34.4176 352.112 33.9674 350.814 33.8737C350.648 33.8629 350.5 33.9854 350.489 34.1547C350.478 34.3204 350.601 34.4681 350.771 34.4789C351.924 34.5617 352.791 34.94 353.424 35.628C354.06 36.3196 354.356 37.1589 354.335 38.1963C354.335 38.362 354.468 38.5025 354.635 38.5061Z" fill="white"/>
<path d="M350.26 32.2969C350.09 32.2969 349.953 32.4302 349.953 32.5995C349.953 32.7688 350.087 32.9056 350.257 32.9056C351.862 32.9164 353.224 33.4532 354.298 34.4978C355.371 35.5424 355.924 36.9977 355.939 38.8312C355.939 38.9969 356.076 39.1338 356.242 39.1338C356.242 39.1338 356.242 39.1338 356.246 39.1338C356.416 39.1338 356.549 38.9969 356.549 38.8276C356.531 36.8248 355.917 35.2218 354.724 34.0619C353.531 32.902 352.028 32.3077 350.26 32.2969Z" fill="white"/>
<path d="M355.83 42.3025C355.826 42.3025 355.132 41.7225 354.793 41.474C354.431 41.2182 354.059 40.9805 353.676 40.7643C353.162 40.4798 352.638 40.6563 352.421 40.9373L351.973 41.4992C351.742 41.7838 351.315 41.7477 351.315 41.7477C348.185 40.9517 347.347 37.7889 347.347 37.7889C347.347 37.7889 347.311 37.3639 347.596 37.1334L348.16 36.6867C348.442 36.4706 348.619 35.9482 348.334 35.4367C348.113 35.0549 347.878 34.6803 347.622 34.3237C347.372 33.985 346.794 33.2898 346.79 33.2898C346.512 32.962 346.1 32.8828 345.666 33.1097C345.662 33.1097 345.659 33.1133 345.655 33.1133C345.225 33.3619 344.835 33.6753 344.502 34.0463C344.499 34.0499 344.499 34.0499 344.495 34.0535C344.228 34.3741 344.072 34.6911 344.036 35.0009C344.029 35.0477 344.025 35.0945 344.029 35.1377C344.029 35.2746 344.047 35.4115 344.09 35.5412L344.105 35.552C344.238 36.0311 344.578 36.8272 345.312 38.1564C345.731 38.9236 346.219 39.6549 346.761 40.3429C347.032 40.6887 347.325 41.0165 347.636 41.3263C347.647 41.3371 347.658 41.3479 347.668 41.3587L347.701 41.3911L347.734 41.4235L347.766 41.456C348.077 41.7658 348.409 42.0575 348.753 42.3277C349.443 42.8716 350.177 43.3543 350.947 43.7722C352.28 44.5034 353.079 44.842 353.56 44.9753L353.571 44.9897C353.701 45.0329 353.838 45.0545 353.976 45.0509C354.023 45.0545 354.07 45.0509 354.113 45.0437C354.424 45.0077 354.742 44.8528 355.064 44.5863C355.067 44.5827 355.067 44.5827 355.071 44.5791C355.443 44.2477 355.758 43.8622 356.007 43.43C356.007 43.4264 356.011 43.4228 356.011 43.4192C356.238 42.9905 356.162 42.5798 355.83 42.3025Z" fill="white"/>
<path d="M331.48 93H329.512V83.64H324.52V93H322.552V81.8H331.48V93ZM334.679 92.12C333.965 91.4053 333.607 90.4987 333.607 89.4C333.607 88.3013 333.965 87.4 334.679 86.696C335.394 85.9813 336.343 85.624 337.527 85.624C338.701 85.624 339.645 85.9813 340.359 86.696C341.085 87.4 341.447 88.3013 341.447 89.4C341.447 90.488 341.085 91.3947 340.359 92.12C339.634 92.824 338.69 93.176 337.527 93.176C336.343 93.176 335.394 92.824 334.679 92.12ZM336.135 87.928C335.762 88.312 335.575 88.8027 335.575 89.4C335.575 89.9973 335.757 90.4933 336.119 90.888C336.493 91.272 336.962 91.464 337.527 91.464C338.103 91.464 338.573 91.272 338.935 90.888C339.309 90.504 339.495 90.008 339.495 89.4C339.495 88.8027 339.309 88.312 338.935 87.928C338.562 87.544 338.093 87.352 337.527 87.352C336.973 87.352 336.509 87.544 336.135 87.928ZM343.653 94.68H341.941V91.288H342.853C343.419 90.5307 343.755 89.2773 343.861 87.528L343.973 85.8H349.285V91.288H350.485V94.68H348.757V93H343.653V94.68ZM345.685 87.528L345.637 88.264C345.509 89.6507 345.221 90.6587 344.773 91.288H347.445V87.528H345.685ZM352.256 87.656L351.792 86.312C352.571 85.8533 353.419 85.624 354.336 85.624C355.339 85.624 356.069 85.8693 356.528 86.36C356.987 86.8507 357.216 87.6027 357.216 88.616V93H355.616V92.168C355.189 92.7867 354.48 93.096 353.488 93.096C352.805 93.096 352.256 92.8987 351.84 92.504C351.435 92.0987 351.232 91.56 351.232 90.888C351.232 90.1413 351.472 89.5653 351.952 89.16C352.432 88.7547 353.067 88.552 353.856 88.552C354.507 88.552 355.051 88.7067 355.488 89.016C355.509 88.376 355.413 87.9067 355.2 87.608C354.997 87.3093 354.645 87.16 354.144 87.16C353.589 87.16 352.96 87.3253 352.256 87.656ZM354.096 91.544C354.715 91.544 355.179 91.3253 355.488 90.888V90.152C355.189 89.9173 354.768 89.8 354.224 89.8C353.883 89.8 353.605 89.88 353.392 90.04C353.179 90.2 353.072 90.4187 353.072 90.696C353.072 90.952 353.168 91.16 353.36 91.32C353.552 91.4693 353.797 91.544 354.096 91.544ZM360.718 87.64H358.35V85.8H364.91V87.64H362.558V93H360.718V87.64ZM368.915 93H366.227V85.8H368.067V87.768H369.059C370.136 87.768 370.931 87.992 371.443 88.44C371.966 88.888 372.227 89.496 372.227 90.264C372.227 91.0853 371.95 91.7467 371.395 92.248C370.84 92.7493 370.014 93 368.915 93ZM368.899 89.24H368.067V91.4H368.883C369.811 91.4 370.275 91.0427 370.275 90.328C370.275 89.6027 369.816 89.24 368.899 89.24ZM379.631 93.176C379.001 93.176 378.388 93.064 377.791 92.84C377.193 92.6053 376.761 92.3173 376.495 91.976L377.439 90.824C377.652 91.0693 377.956 91.2773 378.351 91.448C378.745 91.6187 379.119 91.704 379.471 91.704C379.94 91.704 380.303 91.624 380.559 91.464C380.815 91.304 380.943 91.0907 380.943 90.824C380.943 90.5787 380.847 90.3813 380.655 90.232C380.463 90.0827 380.196 90.008 379.855 90.008H378.511V88.776H379.775C380.063 88.776 380.292 88.696 380.463 88.536C380.644 88.3653 380.735 88.152 380.735 87.896C380.735 87.3733 380.313 87.112 379.471 87.112C378.809 87.112 378.153 87.3893 377.503 87.944L376.735 86.84C377.417 86.0293 378.447 85.624 379.823 85.624C380.751 85.624 381.46 85.8053 381.951 86.168C382.452 86.52 382.703 87.0213 382.703 87.672C382.703 88.024 382.585 88.344 382.351 88.632C382.116 88.92 381.791 89.1333 381.375 89.272V89.304C381.855 89.4 382.228 89.6027 382.495 89.912C382.761 90.2107 382.895 90.5733 382.895 91C382.895 91.672 382.596 92.2053 381.999 92.6C381.412 92.984 380.623 93.176 379.631 93.176ZM385.193 87.656L384.729 86.312C385.508 85.8533 386.356 85.624 387.273 85.624C388.276 85.624 389.007 85.8693 389.465 86.36C389.924 86.8507 390.153 87.6027 390.153 88.616V93H388.553V92.168C388.127 92.7867 387.417 93.096 386.425 93.096C385.743 93.096 385.193 92.8987 384.777 92.504C384.372 92.0987 384.169 91.56 384.169 90.888C384.169 90.1413 384.409 89.5653 384.889 89.16C385.369 88.7547 386.004 88.552 386.793 88.552C387.444 88.552 387.988 88.7067 388.425 89.016C388.447 88.376 388.351 87.9067 388.137 87.608C387.935 87.3093 387.583 87.16 387.081 87.16C386.527 87.16 385.897 87.3253 385.193 87.656ZM387.033 91.544C387.652 91.544 388.116 91.3253 388.425 90.888V90.152C388.127 89.9173 387.705 89.8 387.161 89.8C386.82 89.8 386.543 89.88 386.329 90.04C386.116 90.2 386.009 90.4187 386.009 90.696C386.009 90.952 386.105 91.16 386.297 91.32C386.489 91.4693 386.735 91.544 387.033 91.544ZM395.56 85.8H397.912V93H396.072V90.84H395.048L393.56 93H391.448L393.368 90.44C392.973 90.3013 392.642 90.0507 392.376 89.688C392.109 89.3147 391.976 88.872 391.976 88.36C391.976 87.5707 392.274 86.9467 392.872 86.488C393.48 86.0293 394.376 85.8 395.56 85.8ZM393.944 88.488C393.944 88.7653 394.061 89 394.296 89.192C394.53 89.384 394.802 89.48 395.112 89.48H396.072V87.4H395.256C394.85 87.4 394.53 87.5067 394.296 87.72C394.061 87.9227 393.944 88.1787 393.944 88.488ZM399.962 93V85.8C400.058 85.8 400.463 85.7893 401.178 85.768C401.903 85.736 402.442 85.72 402.794 85.72C404.97 85.72 406.058 86.3493 406.058 87.608C406.058 88.0133 405.93 88.3707 405.674 88.68C405.418 88.9787 405.098 89.1547 404.714 89.208V89.24C405.738 89.4853 406.25 90.04 406.25 90.904C406.25 92.3547 405.108 93.08 402.826 93.08C402.495 93.08 401.988 93.064 401.306 93.032C401.135 93.032 400.938 93.0267 400.714 93.016C400.5 93.016 400.335 93.0107 400.218 93C400.111 93 400.026 93 399.962 93ZM402.954 89.944H401.802V91.544C402.442 91.5867 402.847 91.608 403.018 91.608C403.423 91.608 403.738 91.5333 403.962 91.384C404.196 91.2347 404.314 91.032 404.314 90.776C404.314 90.2213 403.86 89.944 402.954 89.944ZM402.954 87.208C402.527 87.208 402.143 87.2187 401.802 87.24V88.824H403.002C403.332 88.824 403.599 88.7493 403.802 88.6C404.004 88.4507 404.106 88.248 404.106 87.992C404.106 87.4693 403.722 87.208 402.954 87.208ZM412.489 85.8H414.809L412.041 89.224L415.145 93H412.745L409.897 89.368L412.489 85.8ZM409.833 93H407.993V85.8H409.833V93ZM420.997 85.8H423.093L420.261 93C419.749 94.248 419.29 95.0907 418.885 95.528C418.49 95.976 418.021 96.2 417.477 96.2C416.965 96.2 416.448 96.0133 415.925 95.64L416.517 94.248C416.794 94.4187 417.045 94.504 417.269 94.504C417.706 94.504 418.074 94.1307 418.373 93.384L418.533 93L415.205 85.8H417.413L419.093 89.736C419.114 89.7893 419.232 90.136 419.445 90.776C419.509 90.3813 419.594 90.0293 419.701 89.72L420.997 85.8Z" fill="white"/>
<defs>
<linearGradient id="paint0_linear_2_9157" x1="372.5" y1="22" x2="372.5" y2="57" gradientUnits="userSpaceOnUse">
<stop stop-color="#A55CEE"/>
<stop offset="1" stop-color="#854ABA"/>
</linearGradient>
</defs>
</svg>
