<svg width="205" height="26" viewBox="0 0 205 26" fill="none" xmlns="http://www.w3.org/2000/svg">
<path d="M5 1H20C22.2091 1 24 2.79086 24 5V20C24 22.2091 22.2091 24 20 24H5C2.79086 24 1 22.2091 1 20V5C1 2.79086 2.79086 1 5 1Z" fill="white" stroke="#EBEEF3" stroke-width="2"/>
<path d="M45.48 18H44.12V8.08H38.04V18H36.68V6.8H45.48V18ZM48.8843 17.104C48.1803 16.3787 47.8283 15.4773 47.8283 14.4C47.8283 13.312 48.1803 12.416 48.8843 11.712C49.5989 10.9973 50.5269 10.64 51.6683 10.64C52.8096 10.64 53.7323 10.9973 54.4363 11.712C55.1509 12.416 55.5083 13.312 55.5083 14.4C55.5083 15.488 55.1509 16.3893 54.4363 17.104C53.7323 17.808 52.8096 18.16 51.6683 18.16C50.5376 18.16 49.6096 17.808 48.8843 17.104ZM49.8923 12.56C49.4229 13.0293 49.1883 13.6427 49.1883 14.4C49.1883 15.1573 49.4176 15.7707 49.8763 16.24C50.3456 16.72 50.9429 16.96 51.6683 16.96C52.3936 16.96 52.9856 16.7253 53.4443 16.256C53.9136 15.776 54.1483 15.1573 54.1483 14.4C54.1483 13.664 53.9136 13.0507 53.4443 12.56C52.9856 12.08 52.3936 11.84 51.6683 11.84C50.9429 11.84 50.3509 12.08 49.8923 12.56ZM63.2819 18H62.0019V12.08H59.4739L59.3939 13.296C59.3085 14.288 59.1805 15.1147 59.0099 15.776C58.8499 16.4267 58.6365 16.9173 58.3699 17.248C58.1139 17.568 57.8419 17.792 57.5539 17.92C57.2659 18.0373 56.9139 18.096 56.4979 18.096L56.4019 16.848C56.5192 16.8587 56.6419 16.8427 56.7699 16.8C56.8979 16.7467 57.0365 16.64 57.1859 16.48C57.3459 16.32 57.4845 16.1067 57.6019 15.84C57.7299 15.5733 57.8419 15.2 57.9379 14.72C58.0445 14.2293 58.1139 13.6693 58.1459 13.04L58.2739 10.8H63.2819V18ZM68.0215 18H65.5895V10.8H66.8695V12.96H68.1815C69.1628 12.96 69.8828 13.184 70.3415 13.632C70.8002 14.0693 71.0295 14.672 71.0295 15.44C71.0295 16.1653 70.7895 16.7733 70.3095 17.264C69.8295 17.7547 69.0668 18 68.0215 18ZM67.9415 14.16H66.8695V16.8H67.9255C69.0882 16.8 69.6695 16.3627 69.6695 15.488C69.6695 14.6027 69.0935 14.16 67.9415 14.16ZM75.1298 18.16C74.5858 18.16 74.0098 18.0693 73.4018 17.888C72.8151 17.696 72.3991 17.4613 72.1538 17.184L72.8098 16.224C73.0978 16.4587 73.4391 16.6507 73.8338 16.8C74.2391 16.9387 74.6071 17.008 74.9378 17.008C75.4924 17.008 75.9458 16.9013 76.2977 16.688C76.6498 16.464 76.8258 16.176 76.8258 15.824C76.8258 15.5253 76.6978 15.296 76.4418 15.136C76.1964 14.976 75.8551 14.896 75.4178 14.896H74.2018V13.856H75.3378C75.7004 13.856 75.9991 13.76 76.2338 13.568C76.4684 13.3653 76.5858 13.12 76.5858 12.832C76.5858 12.512 76.4471 12.2613 76.1698 12.08C75.8924 11.888 75.5191 11.792 75.0498 11.792C74.2924 11.792 73.5724 12.0587 72.8898 12.592L72.3938 11.6C72.6818 11.3013 73.0818 11.0667 73.5938 10.896C74.1164 10.7253 74.6658 10.64 75.2418 10.64C76.0951 10.64 76.7564 10.8107 77.2258 11.152C77.7058 11.4933 77.9458 11.968 77.9458 12.576C77.9458 13.408 77.5244 13.9733 76.6818 14.272V14.304C77.1511 14.3573 77.5191 14.544 77.7858 14.864C78.0524 15.1733 78.1858 15.552 78.1858 16C78.1858 16.6613 77.9031 17.1893 77.3378 17.584C76.7831 17.968 76.0471 18.16 75.1298 18.16ZM85.2244 10.8H86.6804L83.8004 18C83.2777 19.2693 82.8244 20.112 82.4404 20.528C82.035 20.976 81.571 21.2 81.0484 21.2C80.579 21.2 80.1257 21.0507 79.6884 20.752L80.1044 19.776C80.4457 19.936 80.7124 20.016 80.9044 20.016C81.203 20.016 81.4697 19.888 81.7044 19.632C81.9497 19.376 82.195 18.96 82.4404 18.384L82.6004 18L79.1444 10.8H80.6804L82.7924 15.376C82.835 15.4507 82.979 15.8133 83.2244 16.464C83.3204 16.112 83.4324 15.744 83.5604 15.36L85.2244 10.8ZM93.3945 16.208L93.7945 17.216C93.1012 17.8453 92.1998 18.16 91.0905 18.16C89.9172 18.16 88.9838 17.8187 88.2905 17.136C87.5865 16.4533 87.2345 15.5413 87.2345 14.4C87.2345 13.3227 87.5652 12.4267 88.2265 11.712C88.8772 10.9973 89.7838 10.64 90.9465 10.64C91.9065 10.64 92.7012 10.9493 93.3305 11.568C93.9705 12.176 94.2905 12.9653 94.2905 13.936C94.2905 14.2453 94.2638 14.5333 94.2105 14.8H88.6745C88.7278 15.472 88.9785 16 89.4265 16.384C89.8852 16.768 90.4718 16.96 91.1865 16.96C92.1252 16.96 92.8612 16.7093 93.3945 16.208ZM90.8825 11.84C90.2532 11.84 89.7305 12.016 89.3145 12.368C88.9092 12.72 88.6692 13.184 88.5945 13.76H92.9625C92.9305 13.1627 92.7278 12.6933 92.3545 12.352C91.9918 12.0107 91.5012 11.84 90.8825 11.84ZM97.6144 12.08H94.9744V10.8H101.534V12.08H98.8944V18H97.6144V12.08ZM108.235 16.032L108.843 16.96C108.224 17.76 107.302 18.16 106.075 18.16C104.923 18.16 103.99 17.8187 103.275 17.136C102.571 16.4533 102.219 15.5413 102.219 14.4C102.219 13.344 102.566 12.4533 103.259 11.728C103.952 11.0027 104.822 10.64 105.867 10.64C107.126 10.64 108.07 10.9547 108.699 11.584L108.107 12.592C107.552 12.0907 106.864 11.84 106.043 11.84C105.371 11.84 104.79 12.0853 104.299 12.576C103.819 13.056 103.579 13.664 103.579 14.4C103.579 15.1787 103.824 15.7973 104.315 16.256C104.816 16.7253 105.435 16.96 106.171 16.96C107.003 16.96 107.691 16.6507 108.235 16.032ZM113.32 10.8H115.56V18H114.28V15.6H112.888L111.128 18H109.576L111.656 15.28C111.218 15.184 110.85 14.9493 110.552 14.576C110.253 14.192 110.104 13.7333 110.104 13.2C110.104 12.464 110.37 11.8827 110.904 11.456C111.437 11.0187 112.242 10.8 113.32 10.8ZM111.464 13.232C111.464 13.5733 111.597 13.856 111.864 14.08C112.13 14.2933 112.445 14.4 112.808 14.4H114.28V12H113.112C112.568 12 112.157 12.112 111.88 12.336C111.602 12.56 111.464 12.8587 111.464 13.232ZM127.016 16.032L127.624 16.96C127.005 17.76 126.083 18.16 124.856 18.16C123.704 18.16 122.771 17.8187 122.056 17.136C121.352 16.4533 121 15.5413 121 14.4C121 13.344 121.347 12.4533 122.04 11.728C122.733 11.0027 123.603 10.64 124.648 10.64C125.907 10.64 126.851 10.9547 127.48 11.584L126.888 12.592C126.333 12.0907 125.645 11.84 124.824 11.84C124.152 11.84 123.571 12.0853 123.08 12.576C122.6 13.056 122.36 13.664 122.36 14.4C122.36 15.1787 122.605 15.7973 123.096 16.256C123.597 16.7253 124.216 16.96 124.952 16.96C125.784 16.96 126.472 16.6507 127.016 16.032ZM135.773 18H134.493V12H130.573V18H129.293V10.8H135.773V18ZM139.37 21.2H138.09V10.8H139.37V11.648C139.626 11.3493 139.978 11.1093 140.426 10.928C140.874 10.736 141.338 10.64 141.818 10.64C142.842 10.64 143.647 10.9813 144.234 11.664C144.842 12.336 145.146 13.2107 145.146 14.288C145.146 15.3867 144.799 16.3093 144.106 17.056C143.423 17.792 142.522 18.16 141.402 18.16C140.538 18.16 139.86 17.9947 139.37 17.664V21.2ZM141.45 11.84C140.596 11.84 139.903 12.1707 139.37 12.832V16.4C139.935 16.7733 140.575 16.96 141.29 16.96C142.047 16.96 142.65 16.72 143.098 16.24C143.556 15.7493 143.786 15.1147 143.786 14.336C143.786 13.5787 143.578 12.976 143.162 12.528C142.746 12.0693 142.175 11.84 141.45 11.84ZM147.556 17.104C146.852 16.3787 146.5 15.4773 146.5 14.4C146.5 13.312 146.852 12.416 147.556 11.712C148.271 10.9973 149.199 10.64 150.34 10.64C151.481 10.64 152.404 10.9973 153.108 11.712C153.823 12.416 154.18 13.312 154.18 14.4C154.18 15.488 153.823 16.3893 153.108 17.104C152.404 17.808 151.481 18.16 150.34 18.16C149.209 18.16 148.281 17.808 147.556 17.104ZM148.564 12.56C148.095 13.0293 147.86 13.6427 147.86 14.4C147.86 15.1573 148.089 15.7707 148.548 16.24C149.017 16.72 149.615 16.96 150.34 16.96C151.065 16.96 151.657 16.7253 152.116 16.256C152.585 15.776 152.82 15.1573 152.82 14.4C152.82 13.664 152.585 13.0507 152.116 12.56C151.657 12.08 151.065 11.84 150.34 11.84C149.615 11.84 149.023 12.08 148.564 12.56ZM161.563 16.032L162.171 16.96C161.552 17.76 160.63 18.16 159.403 18.16C158.251 18.16 157.318 17.8187 156.603 17.136C155.899 16.4533 155.547 15.5413 155.547 14.4C155.547 13.344 155.894 12.4533 156.587 11.728C157.28 11.0027 158.15 10.64 159.195 10.64C160.454 10.64 161.398 10.9547 162.027 11.584L161.435 12.592C160.88 12.0907 160.192 11.84 159.371 11.84C158.699 11.84 158.118 12.0853 157.627 12.576C157.147 13.056 156.907 13.664 156.907 14.4C156.907 15.1787 157.152 15.7973 157.643 16.256C158.144 16.7253 158.763 16.96 159.499 16.96C160.331 16.96 161.019 16.6507 161.563 16.032ZM164.025 17.104C163.321 16.3787 162.969 15.4773 162.969 14.4C162.969 13.312 163.321 12.416 164.025 11.712C164.74 10.9973 165.668 10.64 166.809 10.64C167.95 10.64 168.873 10.9973 169.577 11.712C170.292 12.416 170.649 13.312 170.649 14.4C170.649 15.488 170.292 16.3893 169.577 17.104C168.873 17.808 167.95 18.16 166.809 18.16C165.678 18.16 164.75 17.808 164.025 17.104ZM165.033 12.56C164.564 13.0293 164.329 13.6427 164.329 14.4C164.329 15.1573 164.558 15.7707 165.017 16.24C165.486 16.72 166.084 16.96 166.809 16.96C167.534 16.96 168.126 16.7253 168.585 16.256C169.054 15.776 169.289 15.1573 169.289 14.4C169.289 13.664 169.054 13.0507 168.585 12.56C168.126 12.08 167.534 11.84 166.809 11.84C166.084 11.84 165.492 12.08 165.033 12.56ZM173.776 18H172.496V10.8H173.664L176.432 14.368L179.056 10.8H180.192V18H178.912V12.752L176.416 16.096H176.368L173.776 12.752V18Z" fill="#748DB1"/>
<circle cx="196" cy="14" r="9" fill="#AEBCD1"/>
<path d="M196.234 10.656C195.543 10.656 194.969 10.9547 194.512 11.552L193.56 10.474C193.821 10.0447 194.199 9.69933 194.694 9.438C195.189 9.17667 195.735 9.046 196.332 9.046C197.247 9.046 197.961 9.284 198.474 9.76C199.006 10.2267 199.272 10.81 199.272 11.51C199.272 12.126 199.151 12.6253 198.908 13.008C198.665 13.3813 198.325 13.7453 197.886 14.1C197.83 14.1467 197.755 14.2073 197.662 14.282C197.578 14.3567 197.508 14.4173 197.452 14.464C197.405 14.5013 197.34 14.5573 197.256 14.632C197.181 14.7067 197.125 14.7673 197.088 14.814C197.051 14.8513 196.999 14.912 196.934 14.996C196.878 15.0707 196.841 15.136 196.822 15.192C196.803 15.248 196.775 15.3227 196.738 15.416C196.71 15.5093 196.701 15.5933 196.71 15.668C196.729 15.7427 196.738 15.836 196.738 15.948L195.268 15.962C195.212 15.6167 195.207 15.3133 195.254 15.052C195.31 14.7813 195.427 14.5387 195.604 14.324C195.791 14.1 195.94 13.9413 196.052 13.848C196.173 13.7453 196.365 13.596 196.626 13.4C197.242 12.9707 197.55 12.4573 197.55 11.86C197.55 11.524 197.424 11.2393 197.172 11.006C196.92 10.7727 196.607 10.656 196.234 10.656ZM194.96 17.95C194.96 17.6793 195.063 17.4413 195.268 17.236C195.483 17.0213 195.749 16.914 196.066 16.914C196.355 16.914 196.598 17.0213 196.794 17.236C196.999 17.4413 197.102 17.6793 197.102 17.95C197.102 18.258 197.004 18.524 196.808 18.748C196.612 18.9627 196.365 19.07 196.066 19.07C195.749 19.07 195.483 18.9627 195.268 18.748C195.063 18.524 194.96 18.258 194.96 17.95Z" fill="white"/>
</svg>
